<?xml version="1.0" encoding="UTF-8"?>
<svg width="128" height="128" viewBox="0 0 128 128" fill="none" xmlns="http://www.w3.org/2000/svg">
  <!-- Background Circle -->
  <circle cx="64" cy="64" r="60" stroke="#4F46E5" stroke-width="4" stroke-dasharray="377" stroke-dashoffset="377">
    <animate
      attributeName="stroke-dashoffset"
      from="377"
      to="0"
      dur="2s"
      repeatCount="indefinite"
    />
  </circle>
  
  <!-- Dog Face -->
  <path d="M64 35C45 35 35 50 35 64C35 78 45 93 64 93C83 93 93 78 93 64C93 50 83 35 64 35Z" fill="#4F46E5">
    <animate
      attributeName="d"
      dur="1s"
      repeatCount="indefinite"
      values="
        M64 35C45 35 35 50 35 64C35 78 45 93 64 93C83 93 93 78 93 64C93 50 83 35 64 35Z;
        M64 38C45 38 35 51 35 64C35 77 45 90 64 90C83 90 93 77 93 64C93 51 83 38 64 38Z;
        M64 35C45 35 35 50 35 64C35 78 45 93 64 93C83 93 93 78 93 64C93 50 83 35 64 35Z
      "
    />
  </path>
  
  <!-- Magnifying Glass -->
  <g>
    <animateTransform
      attributeName="transform"
      type="rotate"
      from="0 75 59"
      to="360 75 59"
      dur="4s"
      repeatCount="indefinite"
    />
    <circle cx="75" cy="59" r="10" stroke="white" stroke-width="3"/>
    <path d="M82.5 66.5L95 79" stroke="white" stroke-width="3" stroke-linecap="round"/>
  </g>
  
  <!-- Detective Hat -->
  <path d="M44 40C44 40 54 35 64 35C74 35 84 40 84 40C84 40 79 30 64 30C49 30 44 40 44 40Z" fill="#4F46E5">
    <animate
      attributeName="transform"
      attributeType="XML"
      type="translate"
      values="0,0; 0,-3; 0,0"
      dur="1s"
      repeatCount="indefinite"
    />
  </path>
  
  <!-- Eyes -->
  <circle cx="55" cy="59" r="3" fill="white">
    <animate
      attributeName="r"
      values="3;1;3"
      dur="2s"
      repeatCount="indefinite"
    />
  </circle>
  <circle cx="75" cy="59" r="3" fill="white">
    <animate
      attributeName="r"
      values="3;1;3"
      dur="2s"
      repeatCount="indefinite"
    />
  </circle>
  
  <!-- Nose -->
  <circle cx="64" cy="69" r="4" fill="white">
    <animate
      attributeName="transform"
      attributeType="XML"
      type="translate"
      values="0,0; 0,2; 0,0"
      dur="1s"
      repeatCount="indefinite"
    />
  </circle>
</svg> 